<?xml version="1.0" encoding="UTF-8" standalone="no"?>
<!DOCTYPE svg PUBLIC "-//W3C//DTD SVG 1.1//EN" "http://www.w3.org/Graphics/SVG/1.1/DTD/svg11.dtd">
<svg version="1.1" xmlns="http://www.w3.org/2000/svg" xmlns:xlink="http://www.w3.org/1999/xlink" >

    <symbol id="3dPreview" viewBox="0 0 640 640">
        <g>
            <path d="M314.55 542.73L100 460.91L314.55 5.61L314.55 542.73Z" fill="var(--base-color)"></path>
            <path d="M314.55 542.73L529.09 460.91L314.55 5.61L314.55 542.73Z" fill="var(--base-lower-color)"></path>
        </g>
    </symbol>
    <symbol id="LineTool" viewBox="0 0 640 640">
        <g>
            <path d="M487.05 142.35L134.17 455.61"
                  fill="var(--base-color)" stroke="var(--main-color)" stroke-width="50" stroke-opacity="1"
                  fill-opacity="0"></path>
            <path d="M468.26 71L565.71 71L565.71 160.53L468.26 160.53L468.26 71Z"
                  fill="var(--base-lower-color)" stroke="var(--main-color)" stroke-width="30" stroke-opacity="1"
                  fill-opacity="1"></path>
            <path d="M95.08 401.79L192.52 401.79L192.52 491.32L95.08 491.32L95.08 401.79Z"
                  fill="var(--base-lower-color)" stroke="var(--main-color)" stroke-width="30" stroke-opacity="1"
                  fill-opacity="1"></path>
        </g>
    </symbol>
    <symbol id="CircleTool" viewBox="0 0 640 640">
        <g>
            <path d="M502.58 121.52L343.48 302.58"
                  opacity="1" fill-opacity="0" stroke="var(--base-color)" stroke-width="38" stroke-opacity="1"></path>
            <path d="M592.73 316.59C592.73 462.72 471.71 581.36 322.65 581.36C173.59 581.36 52.58 462.72 52.58 316.59C52.58 170.46 173.59 51.82 322.65 51.82C471.71 51.82 592.73 170.46 592.73 316.59Z"
                  opacity="1" fill-opacity="0" stroke="var(--main-color)" stroke-width="30" stroke-opacity="1"></path>
            <path d="M384.02 320C384.02 348.01 358.56 370.76 327.2 370.76C295.84 370.76 270.38 348.01 270.38 320C270.38 291.99 295.84 269.24 327.2 269.24C358.56 269.24 384.02 291.99 384.02 320Z"
                  opacity="1" fill="var(--base-color)" fill-opacity="1"></path>
            <path d="M384.02 320C384.02 348.01 358.56 370.76 327.2 370.76C295.84 370.76 270.38 348.01 270.38 320C270.38 291.99 295.84 269.24 327.2 269.24C358.56 269.24 384.02 291.99 384.02 320Z"
                  opacity="1" fill-opacity="0" stroke="var(--main-color)" stroke-width="13" stroke-opacity="1"></path>
        </g>
    </symbol>

    <symbol id="RectTool" viewBox="0 0 640 640">
        <g>
            <path d="M85.91 166.21L581.36 166.21L581.36 470L85.91 470L85.91 166.21Z"
                  opacity="1" fill-opacity="0" stroke="var(--main-color)" stroke-width="30" stroke-opacity="1"></path>

            <path d="M32.12 113.94L139.7 113.94L139.7 218.48L32.12 218.48L32.12 113.94Z"
                  opacity="1" fill="var(--base-color)" fill-opacity="1"></path>
            <path d="M32.12 113.94L139.7 113.94L139.7 218.48L32.12 218.48L32.12 113.94Z"
                  opacity="1" fill-opacity="0" stroke="var(--main-color)" stroke-width="20"
                  stroke-opacity="1"></path>


            <path d="M527.58 417.73L635.15 417.73L635.15 522.27L527.58 522.27L527.58 417.73Z"
                  opacity="1" fill="var(--base-color)" fill-opacity="1"></path>
            <path d="M527.58 417.73L635.15 417.73L635.15 522.27L527.58 522.27L527.58 417.73Z"
                  opacity="1" fill-opacity="0" stroke="var(--main-color)" stroke-width="20" stroke-opacity="1"></path>
        </g>
    </symbol>

    <symbol id="CornerTool" viewBox="0 0 640 640">
        <g>
            <path d="M688.48 210.91L352.88 210.91"
                  opacity="1" fill-opacity="0" stroke="var(--main-color)" stroke-width="20" stroke-opacity="1"></path>
            <path d="M158.71 737.2L158.71 401.59"
                  opacity="1" fill-opacity="0" stroke="var(--main-color)" stroke-width="20" stroke-opacity="1"></path>
            <path d="M158.71 421.33C159.44 277.77 229.97 207.67 370.3 211.02"
                  opacity="1" fill-opacity="0" stroke="var(--main-color)" stroke-width="20" stroke-opacity="1"></path>

            <path d="M454.39 159.61L557.65 159.61L557.65 262.12L454.39 262.12L454.39 159.61Z"
                  opacity="1" fill="var(--base-color)" fill-opacity="1"></path>
            <path d="M454.39 159.61L557.65 159.61L557.65 262.12L454.39 262.12L454.39 159.61Z"
                  opacity="1" fill-opacity="0" stroke="var(--main-color)" stroke-width="20" stroke-opacity="1"></path>

            <path d="M104.55 450.67L207.8 450.67L207.8 553.18L104.55 553.18L104.55 450.67Z"
                  opacity="1" fill="var(--base-color)" fill-opacity="1"></path>
            <path d="M104.55 450.67L207.8 450.67L207.8 553.18L104.55 553.18L104.55 450.67Z"
                  opacity="1" fill-opacity="0" stroke="var(--main-color)" stroke-width="20" stroke-opacity="1"></path>
        </g>
    </symbol>
    <symbol id="EditLineTool" viewBox="0 0 640 640">
        <g>
            <path d="M24.94 583.64C53.36 544.18 78.6 513.56 100.64 491.78C133.7 459.12 131.09 462.13 157.87 438.3C175.73 422.41 214.68 392.29 274.73 347.95L380.66 267L464.33 197.6C493.28 171.65 521.39 144.78 548.65 116.99C575.91 89.2 607.19 54.64 642.5 13.31L624.11 1.73C541.97 101.16 434.14 197.96 300.6 292.15C167.06 386.33 69.73 480.06 8.59 573.34L24.94 583.64Z"
                  opacity="1" fill="var(--main-color)" fill-opacity="1"></path>

            <path d="M291.97 232.88L397.27 232.88L397.27 330.61L291.97 330.61L291.97 232.88Z"
                  opacity="1" fill="var(--base-color)" fill-opacity="1"></path>


            <path d="M291.97 232.88L397.27 232.88L397.27 330.61L291.97 330.61L291.97 232.88Z"
                  opacity="1" fill-opacity="0" stroke="var(--main-color)" stroke-width="20" stroke-opacity="1"></path>

            <path d="M583.64 510.15L485.91 506.36L407.12 583.64L407.12 342.73L583.64 510.15Z"
                  opacity="1" fill="var(--main-color)" fill-opacity="1"></path>
        </g>
    </symbol>


    <symbol id="Intersect" viewBox="0 0 640 640">
        <g>
            <path d="M588.18 304.85L88.18 304.85"
                  opacity="1" fill-opacity="0" stroke="var(--main-color)" stroke-width="50"
                  stroke-opacity="1"></path>
            <path d="M338.18 554.85L338.18 54.85"
                  opacity="1" fill-opacity="0" stroke="var(--main-color)" stroke-width="50"
                  stroke-opacity="1"></path>
            <path d="M231.44 195.08L444.92 195.08L444.92 414.62L231.44 414.62L231.44 195.08Z"
                  opacity="1" fill="var(--base-color)" fill-opacity="1"></path>
        </g>
    </symbol>

    <symbol id="Question" viewBox="0 0 640 640">
        <g>
            <path d="M167.32 114.78C186.15 106.64 200.57 100.25 210.57 95.6C225.58 88.62 265.3 79.9 287.37 79.9C309.44 79.9 335.03 75.54 363.28 90.37C391.53 105.19 396.82 121.76 402.12 135.71C407.42 149.66 404.77 161.87 404.77 186.28C404.77 210.7 389.76 233.37 363.28 256.91C336.8 280.45 332.39 277.84 305.02 307.48C277.66 337.13 274.13 343.23 261.77 367.65C253.53 383.93 249.41 414.15 249.41 458.33L305.02 458.33C298.55 415.32 313.56 377.82 350.04 345.85C404.77 297.89 412.71 287.43 437.43 266.5C462.15 245.58 487.74 162.74 467.44 114.78C447.14 66.82 424.19 45.02 385.35 31.95C346.51 18.87 320.91 17.99 268.83 20.61C234.11 22.35 192.33 35.14 143.48 58.98L167.32 114.78Z"
                  fill="var(--base-color)" fill-opacity="1"></path>
            <path d="M320 573.48C320 597.07 299.84 616.21 275 616.21C250.16 616.21 230 597.07 230 573.48C230 549.9 250.16 530.76 275 530.76C299.84 530.76 320 549.9 320 573.48Z"
                  fill="var(--base-color)" fill-opacity="1"></path>
        </g>
    </symbol>

    <symbol id="Cancel" viewBox="0 0 640 640">
        <g>
            <path d="M549.55 552.58L84.39 91.21" stroke="var(--base-color)" opacity="1" fill-opacity="0"  stroke-width="100"
                  stroke-opacity="1"></path>
            <path d="M96.29 564.47L557.65 99.32" stroke="var(--base-color)" opacity="1" fill-opacity="0"  stroke-width="100"
                  stroke-opacity="1"></path>
        </g>
    </symbol>

    <symbol id="Ok" viewBox="0 0 640 640">
        <path d="M122.99 390.02C136.11 418.52 157.17 442.58 186.15 462.2C205.29 421.55 247.12 369.47 311.64 305.93C376.17 242.4 428.12 196.38 467.49 167.88L599.55 79.59C590.8 76.79 557.17 89.4 498.66 117.43C410.89 159.48 419.09 151.77 318.21 223.45C250.95 271.24 201.46 321.16 169.74 373.2L54.09 214.13C86.9 302.89 109.87 361.52 122.99 390.02Z"
              opacity="1" fill="var(--base-color)" fill-opacity="1"></path>
    </symbol>

    <symbol id="UPS_logo" viewBox="0 0 64 64">
        <g transform="matrix(1.25 0 0 -1.25 -47.372 728.76)">
            <g transform="translate(.36060 .36060)">
                <path d="m38.962 567.66 0.17739-20.134 4.5235-5.5879 13.571-7.1844 16.675 8.1601 3.4592 8.2488-0.35478 26.698-12.595 0.35478-13.127-2.1287-11.974-6.9183z"
                      fill-rule="evenodd" fill="#301506"/>
                <path d="m25.619 0c-9.881 0-18.5 1.913-25.619 5.6855v30.16c0 6.3462 2.3845 11.653 6.8945 15.35 4.1875 3.435 17.138 9.0957 18.725 9.7832 1.505-0.655 14.609-6.4032 18.73-9.7832 4.5075-3.695 6.8926-9.0034 6.8926-15.35v-30.16c-7.12-3.773-15.739-5.686-25.624-5.686zm14.631 5.8398c2.9466 0.038525 5.8399 0.22055 8.6367 0.48047v29.525c0 5.6738-2.0588 10.257-6.0312 13.529-3.5488 2.9225-14.25 7.717-17.236 9.0332-3.026-1.334-13.754-6.189-17.239-9.032-3.9489-3.216-6.0275-7.908-6.0275-13.529v-17.252c11.348-10.407 25.128-12.921 37.896-12.754zm-13.963 13.748c-2.4312 0-4.3928 0.54344-6.0078 1.5859v29.049h4.459v-9.3848c0.445 0.13125 1.0909 0.25391 2.0059 0.25391 4.9462 0 7.7891-4.4588 7.7891-10.969 0-6.4975-2.9273-10.535-8.2461-10.535zm15.236 0c-2.9325 0.085-5.9992 2.2093-5.9805 5.8105 0.0075 2.3712 0.66484 4.1445 4.3398 6.3008 1.9612 1.1512 2.7514 1.9098 2.7852 3.3086 0.0375 1.555-1.0369 2.4926-2.6719 2.4863-1.4225-0.01125-3.123-0.8007-4.2617-1.8145v4.1035c1.3962 0.8325 3.1384 1.3828 4.8984 1.3828 4.405 0 6.372-3.1116 6.457-5.9629 0.08375-2.5988-0.63438-4.5652-4.3594-6.7539-1.6625-0.975-2.9754-1.6158-2.9316-3.2383 0.04375-1.5838 1.3586-2.1402 2.6211-2.1289 1.5575 0.01375 3.0641 0.87633 3.9941 1.8301v-3.875c-0.78375-0.60375-2.4431-1.5242-4.8906-1.4492zm-36.893 0.45117v14.012c0 4.7238 2.2345 7.1152 6.6445 7.1152 2.7288 0 5.0143-0.63156 6.7168-1.7891v-19.338h-4.4492v16.801c-0.485 0.3325-1.2044 0.54492-2.1094 0.54492-2.0425 0-2.3477-1.873-2.3477-3.1367v-14.209h-4.4551zm21.687 3.1387c2.5862 0 3.6582 2.0648 3.6582 7.0586 0.000001 4.8725-1.226 7.2266-3.791 7.2266-0.60375 0-1.1285-0.14953-1.4473-0.26953v-13.693c0.36125-0.18 0.97508-0.32227 1.5801-0.32227z"
                      transform="matrix(.8 0 0 -.8 37.897 582.21)" fill="#fab80a"/>
            </g>
        </g>
    </symbol>

    <symbol id="box-paper" viewBox="0 0 640 640">
        <g>
            <path d="M233.4 357.91L233.4 597.27L10.91 448.13L10.91 222.59L233.4 357.91Z"
                  opacity="1" fill="var(--base-color)" fill-opacity="1"></path>
            <path d="M488.94 465.59L488.94 232.77L242.95 359.37L240.75 597.27L488.94 465.59Z"
                  opacity="1" fill="var(--base-color)" fill-opacity="1"></path>
            <path d="M281.87 111.27L270.85 117.82L273.05 142.56L146.02 192.76L132.8 184.76L152.63 176.75L152.63 155.65L15.31 212.4L238.54 347.73L482.33 224.04L281.87 111.27Z"
                  opacity="1" fill="var(--base-color)" fill-opacity="1"></path>
            <path d="M160.71 67.62L264.98 28.33L264.98 136.74L160.71 178.21L160.71 67.62Z"
                  opacity="1" fill="var(--base-color)" fill-opacity="1"></path>
        </g>
    </symbol>

    <symbol id="drag-hand" viewBox="0 0 400 440">
        <g>
            <path id="path0"
                  d="M185.062 41.046 C 177.494 43.375,170.910 49.158,166.475 57.372 C 163.855 62.223,163.764 62.252,152.558 61.925 C 129.126 61.241,92.119 86.099,88.157 105.184 C 86.063 115.270,86.577 117.117,94.434 127.733 C 97.708 132.156,100.386 137.027,100.386 138.558 C 100.386 140.089,101.743 142.190,103.402 143.226 C 112.056 148.630,135.641 185.416,139.294 199.205 C 145.760 223.620,149.212 254.826,145.446 254.826 C 144.747 254.826,140.830 249.932,136.743 243.950 C 122.513 223.124,106.474 209.258,97.244 209.802 C 92.136 210.104,90.813 209.430,87.196 204.689 C 84.483 201.132,81.749 199.228,79.353 199.228 C 77.331 199.228,75.676 198.429,75.676 197.453 C 75.676 196.150,69.919 195.964,54.008 196.751 C 27.142 198.081,18.096 201.041,7.336 212.023 L 0.000 219.511 0.046 234.466 L 0.091 249.421 8.154 258.153 C 12.588 262.956,21.081 272.583,27.027 279.546 C 32.973 286.509,39.460 293.699,41.442 295.524 C 59.172 311.844,62.527 316.363,68.482 331.950 C 73.723 345.664,75.031 347.772,79.670 349.973 C 82.559 351.344,88.228 356.641,92.268 361.743 C 96.308 366.845,103.992 375.976,109.344 382.035 C 124.973 399.728,127.842 406.507,133.529 439.168 L 134.567 445.130 151.067 443.984 C 170.412 442.640,289.743 442.665,319.020 444.019 C 342.521 445.105,341.690 445.670,343.659 427.285 C 344.265 421.622,345.375 416.988,346.126 416.988 C 346.876 416.988,347.490 413.211,347.490 408.595 C 347.490 392.105,353.920 367.568,358.241 367.568 C 359.869 367.568,361.359 366.122,361.820 364.093 C 362.848 359.573,370.610 338.889,376.543 324.860 C 379.113 318.784,384.671 309.054,388.895 303.238 C 398.699 289.741,398.620 290.383,399.428 217.123 C 400.133 153.159,399.702 148.905,391.154 135.338 C 385.365 126.149,376.480 115.830,374.357 115.830 C 371.314 115.830,357.292 102.318,355.271 97.438 C 352.873 91.649,347.094 89.575,333.360 89.575 C 325.527 89.575,322.780 89.036,322.780 87.498 C 322.780 86.356,321.453 84.220,319.832 82.753 C 318.211 81.286,316.042 78.051,315.012 75.564 C 313.982 73.077,312.354 71.015,311.396 70.982 C 309.270 70.909,299.166 57.575,298.005 53.312 C 297.181 50.283,295.262 49.055,283.731 44.173 C 274.354 40.203,251.346 40.852,242.179 45.345 L 234.938 48.895 226.735 43.787 C 217.302 37.914,199.125 36.718,185.062 41.046 M219.657 78.135 C 224.862 81.794,226.557 84.262,228.609 91.174 C 230.001 95.864,232.239 101.419,233.583 103.518 C 234.927 105.618,236.892 110.290,237.949 113.900 C 239.006 117.510,240.400 120.463,241.047 120.463 C 242.459 120.463,246.258 132.039,248.523 143.246 C 249.424 147.708,252.848 156.742,256.131 163.324 C 259.414 169.905,262.582 177.375,263.170 179.923 C 263.759 182.471,266.267 189.484,268.743 195.507 C 271.218 201.531,273.706 209.349,274.271 212.882 C 274.912 216.887,276.116 219.305,277.472 219.305 C 278.667 219.305,281.342 220.417,283.417 221.776 C 287.425 224.403,297.562 225.128,299.594 222.934 C 300.998 221.417,288.536 158.285,284.996 148.983 C 283.692 145.557,282.625 141.122,282.625 139.127 C 282.625 137.132,281.321 133.333,279.727 130.684 C 274.750 122.417,271.393 109.831,272.216 102.530 C 272.636 98.803,272.476 95.753,271.860 95.753 C 271.243 95.753,269.484 92.969,267.950 89.566 C 266.415 86.164,264.225 82.604,263.082 81.655 C 259.927 79.037,260.597 75.676,264.274 75.676 C 266.073 75.676,270.069 78.345,273.155 81.608 C 276.240 84.870,281.401 90.338,284.624 93.758 C 287.847 97.178,291.209 102.675,292.096 105.973 C 292.983 109.271,296.073 117.254,298.962 123.712 C 304.385 135.832,313.502 168.913,313.509 176.494 C 313.512 178.856,315.201 184.796,317.262 189.695 C 319.324 194.594,321.504 202.952,322.105 208.269 C 324.087 225.785,338.441 231.665,349.367 219.437 C 356.447 211.513,352.879 180.760,342.461 159.922 C 338.582 152.162,338.007 149.552,338.766 143.146 C 339.350 138.207,338.901 133.733,337.478 130.328 C 334.753 123.804,336.462 123.669,342.579 129.926 C 345.177 132.583,348.908 135.549,350.871 136.517 C 355.168 138.638,367.119 162.074,373.005 179.923 C 381.569 205.896,379.536 236.846,367.625 261.798 C 365.187 266.907,360.989 276.636,358.298 283.420 C 355.606 290.203,349.074 303.745,343.782 313.514 C 331.917 335.414,320.449 360.116,318.329 368.340 C 317.453 371.737,315.199 381.815,313.319 390.734 C 311.439 399.653,309.762 407.149,309.592 407.392 C 309.421 407.636,303.806 405.912,297.112 403.563 C 270.437 394.198,187.616 397.534,156.906 409.210 C 150.360 411.698,149.807 411.282,149.807 403.861 C 149.807 400.039,149.136 396.911,148.316 396.911 C 144.577 396.911,136.193 387.333,135.173 381.896 C 133.717 374.138,130.141 367.568,127.373 367.568 C 126.121 367.568,125.097 366.191,125.097 364.509 C 125.097 361.381,115.301 344.871,111.792 342.085 C 110.723 341.236,107.566 335.676,104.777 329.730 C 101.988 323.784,98.859 318.043,97.823 316.972 C 96.787 315.901,92.314 308.951,87.882 301.528 C 83.450 294.104,74.819 282.819,68.702 276.448 C 57.210 264.480,52.513 257.043,49.590 246.189 C 48.400 241.768,46.622 239.270,43.638 237.825 C 39.415 235.781,39.458 235.748,49.148 233.554 C 60.397 231.008,71.318 232.064,75.322 236.085 C 79.325 240.104,86.046 244.015,88.951 244.015 C 95.553 244.015,129.726 284.698,141.491 306.564 C 147.982 318.626,170.398 319.453,176.033 307.838 C 179.912 299.842,181.755 231.786,178.587 213.523 C 175.318 194.676,161.021 164.683,139.749 132.046 C 121.383 103.867,120.145 98.136,131.606 94.354 C 141.988 90.928,151.493 96.222,161.413 110.957 C 170.283 124.132,170.688 125.034,181.410 155.493 C 185.053 165.840,190.545 178.798,193.615 184.287 C 196.685 189.777,200.537 199.728,202.175 206.401 C 214.620 257.103,218.146 263.290,231.017 257.007 C 241.936 251.676,244.169 237.681,236.477 222.792 C 222.114 194.993,219.166 187.045,211.416 155.212 C 208.454 143.044,204.228 130.533,200.687 123.451 C 181.146 84.360,191.914 58.637,219.657 78.135 "
                  stroke="none" fill="var(--main-color)" fill-rule="evenodd"></path>
        </g>
    </symbol>
    <symbol id="drag-hand2" viewBox="0 0 400 440">
        <g>
            <path id="path0"
                  d="M185.655 68.381 C 159.492 73.848,137.476 94.932,129.737 121.930 L 128.144 127.485 112.025 127.485 L 95.906 127.485 95.906 121.601 C 95.906 112.852,94.236 113.072,79.737 123.722 C 72.748 128.856,65.895 133.664,64.509 134.406 C 61.726 135.895,61.176 139.575,63.450 141.488 C 65.977 143.613,73.328 148.964,79.565 153.216 C 82.867 155.468,87.113 158.547,89.000 160.060 C 94.056 164.111,95.906 162.757,95.906 155.007 L 95.906 148.538 112.281 148.538 L 128.655 148.538 128.655 152.006 C 128.655 167.106,153.811 203.509,164.246 203.509 C 167.381 203.509,164.662 178.293,161.043 173.805 C 137.637 144.777,148.362 104.301,183.041 90.782 C 194.946 86.141,214.028 87.527,225.146 93.839 C 226.433 94.570,228.842 95.853,230.500 96.691 C 241.510 102.258,253.801 125.220,253.801 140.221 C 253.801 149.876,248.497 164.110,241.290 173.795 C 238.869 177.047,238.596 178.689,238.596 190.011 L 238.596 202.608 241.813 200.520 C 258.370 189.769,271.488 169.241,272.789 152.047 L 273.099 147.953 289.766 147.629 L 306.433 147.304 306.433 154.354 C 306.433 162.867,307.163 163.057,315.521 156.720 C 318.911 154.150,322.157 152.047,322.733 152.047 C 323.310 152.047,323.957 151.652,324.172 151.170 C 324.617 150.168,332.348 144.202,337.135 141.167 C 342.934 137.490,340.870 135.149,318.048 119.515 C 306.930 111.899,306.630 111.916,306.199 120.175 L 305.848 126.901 289.181 127.225 C 272.523 127.549,272.515 127.548,272.514 124.886 C 272.514 123.421,271.458 119.446,270.169 116.053 C 256.845 80.998,221.279 60.936,185.655 68.381 M190.643 116.087 C 183.815 119.827,181.225 122.121,178.415 126.917 L 175.439 131.995 175.439 220.969 C 175.439 269.904,175.044 309.939,174.561 309.936 C 174.079 309.933,172.062 308.410,170.079 306.551 C 168.097 304.693,160.202 298.029,152.535 291.742 C 144.869 285.455,138.421 279.873,138.207 279.337 C 137.992 278.801,137.244 278.363,136.544 278.363 C 135.845 278.363,134.441 277.625,133.425 276.724 C 124.264 268.597,109.305 266.359,101.690 271.977 C 93.138 278.287,89.928 288.942,94.737 295.056 C 96.023 296.692,97.076 298.287,97.076 298.601 C 97.076 298.915,100.145 303.832,103.895 309.528 C 107.646 315.223,111.058 320.673,111.477 321.637 C 111.897 322.602,115.942 328.918,120.468 335.673 C 124.993 342.427,129.039 348.743,129.459 349.708 C 129.878 350.673,133.290 356.122,137.040 361.817 C 140.791 367.513,143.860 372.403,143.860 372.684 C 143.860 372.964,144.827 374.620,146.010 376.363 C 149.095 380.909,157.062 393.170,158.714 395.914 C 177.440 427.010,167.654 423.690,237.784 422.737 C 301.663 421.868,299.079 422.227,302.026 413.824 C 327.706 340.599,330.001 310.673,311.792 286.468 C 299.041 269.518,273.110 255.808,238.931 247.945 L 226.984 245.196 226.650 188.301 L 226.316 131.405 223.145 126.616 C 216.246 116.194,200.035 110.942,190.643 116.087 "
                  stroke="none" fill="var(--main-color)" fill-rule="evenodd"></path>
        </g>
    </symbol>

    <symbol id="tracing-paper" viewBox="0 0 300 340">
        <g transform="translate(0.000000,323.000000) scale(0.100000,-0.100000)">
            <path d="M290 2118 c0 -441 -3 -1036 -7 -1320 l-6 -518 1280 0 1279 0 -8 71 c-18 153 -118 306 -257 393 -22 14 -76 38 -118 54 l-78 27 -777 3 -778 3 0 810 c0 894 1 872 -63 993 -82 154 -232 256 -414 281 l-53 7 0 -804z" fill="var(--main-color)"/>
            <path d="M767 2894 c29 -14 68 -44 87 -66 69 -80 66 -35 66 -1020 l0 -888 863 -2 862 -3 41 -22 c47 -25 110 -91 130 -137 18 -43 17 -11 -2 55 -45 151 -151 278 -284 341 -41 20 -99 41 -128 47 -34 7 -234 11 -571 11 -285 0 -539 3 -564 6 l-46 7 -3 621 c-4 566 -5 626 -22 676 -70 213 -225 348 -451 394 -22 4 -15 -1 22 -20z" fill="var(--main-color)"/>
            <path d="M1274 2521 l31 -66 3 -572 3 -572 542 -3 543 -3 62 -31 c34 -17 62 -29 62 -27 0 2 -51 57 -112 121 -62 65 -299 313 -527 552 -228 239 -465 487 -527 551 l-112 116 32 -66z" fill="var(--main-color)"/>
        </g>
    </symbol>

</svg>